<svg xmlns="http://www.w3.org/2000/svg" fill="none" viewBox="0 0 11 15">
  <path d="M5.25 14.781l-.281-.344C4.78 14.188 0 8.595 0 5.25 0 2.344 2.375 0 5.25 0s5.25 2.375 5.25 5.25c0 3.344-4.781 8.969-4.969 9.188l-.281.343zM5.25.72c-2.5 0-4.5 2.031-4.5 4.5 0 2.625 3.469 7.093 4.5 8.375 1.031-1.281 4.5-5.719 4.5-8.375 0-2.469-2-4.5-4.5-4.5z" fill="#228BE6"/>
  <path d="M5.25.719c-2.5 0-4.5 2.031-4.5 4.5 0 2.625 3.469 7.093 4.5 8.375 1.031-1.281 4.5-5.719 4.5-8.375 0-2.469-2-4.5-4.5-4.5z" fill="#228BE6"/>
  <path d="M5.25 7.25c-1.094 0-2-.906-2-2 0-1.094.906-2 2-2 1.094 0 2 .906 2 2 0 1.094-.906 2-2 2zm0-3.25C4.562 4 4 4.563 4 5.25c0 .688.563 1.25 1.25 1.25.688 0 1.25-.563 1.25-1.25C6.5 4.562 5.937 4 5.25 4z" fill="#fff"/>
  <path d="M5.25 4C4.562 4 4 4.563 4 5.25c0 .688.563 1.25 1.25 1.25.688 0 1.25-.563 1.25-1.25C6.5 4.562 5.937 4 5.25 4z" fill="#fff"/>
</svg>
