<svg xmlns="http://www.w3.org/2000/svg" fill="none" viewBox="0 0 16 16">
  <g clip-path="url(#SWIYInzPEka)">
    <path fill-rule="evenodd" clip-rule="evenodd" d="M.935 8a7.064 7.064 0 1114.13 0A7.064 7.064 0 01.934 8zM8 1.949a6.051 6.051 0 00-4.472 10.127A5.303 5.303 0 018 9.626c1.88 0 3.53.978 4.472 2.45A6.051 6.051 0 008 1.948zm3.714 10.828A4.291 4.291 0 008 10.64c-1.584 0-2.97.858-3.714 2.138A6.024 6.024 0 008 14.05c1.4 0 2.689-.476 3.714-1.274zM5.494 6.94a2.507 2.507 0 115.013 0 2.507 2.507 0 01-5.014 0zM8 5.445a1.493 1.493 0 100 2.987 1.493 1.493 0 000-2.987z" fill="#212529"/>
  </g>
  <defs>
    <clipPath id="SWIYInzPEka">
      <path fill="#fff" d="M0 0h16v16H0z"/>
    </clipPath>
  </defs>
</svg>
